<svg width="20" height="24" viewBox="0 0 20 24" fill="none" xmlns="http://www.w3.org/2000/svg">
<g id="Group 349">
<path id="Vector" d="M17.8928 23.3333H5.74991C5.32064 23.3328 4.90908 23.1621 4.60554 22.8586C4.302 22.555 4.13129 22.1435 4.13086 21.7142V16.8571H5.74991V21.7142H17.8928V3.90469H10.607V2.28564H17.8928C18.322 2.28607 18.7336 2.45679 19.0371 2.76033C19.3407 3.06386 19.5114 3.47543 19.5118 3.90469V21.7142C19.5114 22.1435 19.3407 22.555 19.0371 22.8586C18.7336 23.1621 18.322 23.3328 17.8928 23.3333Z" fill="#666666"/>
<path id="Vector_2" d="M10.6078 7.14282H16.2745V8.76186H10.6078V7.14282ZM9.79827 11.1904H16.2745V12.8095H9.79827V11.1904ZM8.98875 15.2381H16.2745V16.8571H8.98875V15.2381ZM4.1316 14.4285C3.05844 14.4275 2.02953 14.0007 1.27069 13.2418C0.511844 12.483 0.0850559 11.4541 0.0839844 10.3809V1.47615H1.70303V10.3809C1.70303 11.025 1.9589 11.6427 2.41434 12.0982C2.86979 12.5536 3.48751 12.8095 4.1316 12.8095C4.7757 12.8095 5.39342 12.5536 5.84886 12.0982C6.30431 11.6427 6.56017 11.025 6.56017 10.3809V3.0952C6.56017 2.8805 6.47489 2.67459 6.32307 2.52278C6.17126 2.37096 5.96535 2.28567 5.75065 2.28567C5.53595 2.28567 5.33005 2.37096 5.17823 2.52278C5.02642 2.67459 4.94113 2.8805 4.94113 3.0952V11.1904H3.32208V3.0952C3.32208 2.4511 3.57795 1.83338 4.03339 1.37794C4.48884 0.922493 5.10655 0.666626 5.75065 0.666626C6.39475 0.666626 7.01247 0.922493 7.46791 1.37794C7.92336 1.83338 8.17922 2.4511 8.17922 3.0952V10.3809C8.17815 11.4541 7.75136 12.483 6.99252 13.2418C6.23368 14.0007 5.20477 14.4275 4.1316 14.4285Z" fill="#666666"/>
</g>
</svg>
