<svg width="22" height="20" viewBox="0 0 22 20" fill="none" xmlns="http://www.w3.org/2000/svg">
<g id="Group 380">
<path id="Vector (Stroke)" d="M20.1077 1.71921C19.8831 1.74334 19.671 1.83658 19.4999 1.98644L15.1439 5.81053L11.5564 1.13064C11.454 0.99695 11.3232 0.888447 11.1737 0.813213C11.0243 0.737979 10.86 0.697951 10.6932 0.696111C10.5264 0.694271 10.3614 0.730667 10.2103 0.802587C10.0593 0.874507 9.92618 0.980098 9.82091 1.1115L6.06153 5.81166L1.84193 2.04162C1.67132 1.88904 1.45865 1.79339 1.23273 1.76763C1.0068 1.74186 0.778533 1.78723 0.578844 1.89758C0.379156 2.00794 0.217695 2.17795 0.116329 2.38458C0.0149641 2.59122 -0.0214071 2.8245 0.0121421 3.05282L1.70109 14.6512H19.6585L21.322 2.9999C21.3542 2.77283 21.3174 2.54118 21.2165 2.33593C21.1156 2.13069 20.9553 1.96164 20.7571 1.85143C20.559 1.74121 20.3324 1.69508 20.1077 1.71921Z" fill="white"/>
<path id="Vector (Stroke)_2" d="M1.72784 17.509C1.72784 17.6242 1.73432 17.7384 1.74693 17.8502C1.78811 18.2149 1.8947 18.5536 2.05511 18.8197C2.26465 19.1673 2.54885 19.3626 2.84519 19.3626H18.4881C18.7844 19.3626 19.0686 19.1673 19.2782 18.8197C19.4386 18.5536 19.5452 18.2149 19.5864 17.8502C19.599 17.7384 19.6054 17.6242 19.6054 17.509V15.6553H1.72784V17.509Z" fill="white"/>
</g>
</svg>
