<svg width="173" height="23" viewBox="0 0 173 23" fill="none" xmlns="http://www.w3.org/2000/svg">
<g id="Group 403">
<path id="Vector" d="M40.8225 7.50162C41.7411 8.62358 41.9757 9.94728 41.8167 11.3472C41.6576 12.747 41.077 13.8937 39.7965 14.6019C40.5282 15.1227 41.1625 15.5962 41.4866 16.4032C41.8489 17.293 41.9228 18.2804 41.6974 19.2173C41.539 19.9977 41.1828 20.7203 40.6654 21.311C40.1497 21.9081 39.4863 22.348 38.7467 22.5832C38.1662 22.7533 37.5739 22.8771 36.9751 22.9538C34.9868 23.2502 32.6009 21.9245 31.7459 20.0717C31.4914 19.5179 31.728 18.5874 32.1972 18.3095C32.8852 17.8978 33.7103 18.0542 34.0503 18.7788C34.794 20.3537 36.1222 20.5431 37.4305 20.3064C38.4723 20.117 39.2199 19.417 39.2358 18.1633C39.2537 17.1608 38.6393 16.4938 37.7705 16.2405C37.2296 16.0841 36.6451 16.08 36.0784 16.0182C34.2313 15.8124 32.3006 14.5772 31.6862 12.4629C31.1315 10.5484 31.3562 8.75739 32.5233 7.14342C33.0963 6.35274 33.9093 5.78433 34.8317 5.52944C35.3765 5.37093 35.9472 5.17947 36.4979 5.198C37.2265 5.22764 37.9471 5.36632 38.6374 5.60973C38.9475 5.71884 39.0887 5.6859 39.2339 5.47798C39.9019 4.57629 41.0233 4.88509 41.2977 5.69825C41.4031 6.01734 41.3295 6.42907 41.252 6.77698C41.1943 7.01578 40.9915 7.2237 40.8225 7.50162ZM39.3512 10.6266C39.2179 10.1305 39.1523 9.59732 38.9356 9.14647C38.4027 8.03275 37.4802 7.60661 36.2951 7.72807C35.9741 7.74733 35.6607 7.83715 35.3758 7.99155C35.0909 8.14596 34.8411 8.36141 34.6429 8.62358C33.8058 9.73113 33.8475 10.954 34.3208 12.1624C34.7343 13.2123 36.4264 13.8999 37.3986 13.4923C38.6075 12.9879 39.2895 12.0842 39.3512 10.6266Z" fill="#010040"/>
<path id="Vector_2" d="M75.0662 14.5965C74.7563 14.937 74.5161 15.3241 74.1713 15.5572C73.3071 16.145 72.2048 15.3971 72.2131 14.4932C72.2438 10.6768 72.2233 6.86036 72.2233 3.04396C72.2233 2.72374 72.2233 2.40148 72.2336 2.08125C72.2644 1.35364 72.7611 0.915863 73.5452 0.915863C74.3293 0.915863 74.8897 1.37189 74.9 2.1076C74.9184 3.3723 74.9 4.63903 74.9 5.90576C74.9 6.05371 74.9164 6.20166 74.9225 6.29489C75.4665 5.98885 75.9899 5.64228 76.5647 5.38082C77.6115 4.89845 78.6871 4.89846 79.8201 5.14572C81.0135 5.37731 82.0736 6.0473 82.7862 7.02048C83.371 7.77185 83.6981 8.68764 83.7201 9.635C83.7453 10.5179 83.6765 11.401 83.5149 12.2698C83.1906 13.7818 82.193 14.8255 80.8054 15.4984C79.6641 16.0497 78.4284 16.0254 77.2215 15.8855C76.7908 15.8319 76.3763 15.6895 76.005 15.4674C75.6337 15.2453 75.3138 14.9486 75.0662 14.5965ZM81.0825 10.5308C81.1523 8.61351 79.7503 7.49068 78.1821 7.44812C77.3777 7.43919 76.6017 7.7415 76.0201 8.29035C75.4385 8.83921 75.0976 9.59101 75.0703 10.3849C74.9985 12.1948 76.6036 13.5061 78.0179 13.5467C79.7175 13.5933 81.1933 12.0833 81.0825 10.5308Z" fill="#010040"/>
<path id="Vector_3" d="M13.8005 14.323C13.3043 14.8997 12.6536 15.3514 11.9104 15.6351C11.1671 15.9187 10.3562 16.0248 9.555 15.9432C7.29397 15.7746 5.50418 14.8229 4.67454 12.8393C4.19491 11.757 4.06521 10.5731 4.30066 9.42625C4.52189 8.37623 4.86481 7.44266 5.62807 6.61549C6.30917 5.90206 7.21235 5.3925 8.21874 5.15389C8.85523 5.00819 9.50918 4.93468 10.1656 4.93505C10.8218 4.90507 11.477 5.01034 12.082 5.24296C12.687 5.47558 13.2262 5.82951 13.6589 6.27819C13.7087 6.3128 13.7639 6.34053 13.8226 6.36051C13.9244 5.85859 14.1301 5.48515 14.7076 5.29242C15.681 4.96115 16.7274 5.51527 16.7341 6.46491C16.7518 9.07491 16.7451 11.6849 16.7341 14.2849C16.7341 14.9494 16.1633 15.5357 15.5195 15.5838C14.5549 15.6541 14.0505 15.3028 13.8005 14.323ZM10.4997 7.33223C8.67891 7.16961 7.14796 8.52079 7.15238 10.3779C7.15238 12.3655 8.70103 13.532 10.451 13.544C12.201 13.5561 13.7319 12.3515 13.743 10.3799C13.754 8.58905 12.2585 7.1676 10.4997 7.33223Z" fill="#010040"/>
<path id="Vector_4" d="M67.1849 14.4467C66.6311 15.0251 65.9295 15.4622 65.146 15.7168C64.3625 15.9714 63.5229 16.0353 62.7059 15.9023C61.9538 15.8185 61.2392 15.5481 60.6359 15.1189C60.0326 14.6897 59.5624 14.1174 59.2739 13.461C58.8255 12.4872 58.6024 11.4354 58.6195 10.3749C58.6062 9.05857 58.6017 7.74222 58.6195 6.4238C58.635 5.30709 59.7731 4.55221 60.8934 5.12825C61.5589 5.47761 61.6233 6.10771 61.6366 6.70661C61.6699 8.09159 61.6588 9.47864 61.6366 10.8657C61.6366 11.8119 61.9627 12.6063 62.839 13.0929C63.2107 13.3056 63.6299 13.4349 64.0638 13.4706C64.4976 13.5062 64.9344 13.4474 65.34 13.2986C65.7455 13.1498 66.1089 12.9151 66.4016 12.6128C66.6944 12.3105 66.9085 11.9488 67.0274 11.5561C67.1694 11.0273 67.2373 10.4834 67.2293 9.93821C67.2582 8.69049 67.267 7.44277 67.2293 6.19505C67.2093 5.46929 67.9348 4.94733 68.6358 4.94733C69.3368 4.94733 70.1089 5.57119 70.1111 6.2408C70.1229 9.01351 70.1229 11.7862 70.1111 14.5589C70.1111 15.1183 69.5942 15.6923 69.0817 15.7547C68.1389 15.867 67.7063 15.6361 67.4334 14.8875C67.3638 14.7343 67.2807 14.5869 67.1849 14.4467Z" fill="#010040"/>
<path id="Vector_5" d="M21.3493 6.41378C21.6761 6.18869 21.9545 6.01987 22.2148 5.81562C23.0156 5.19949 23.9979 4.88823 24.9954 4.93457C25.9929 4.98091 26.9442 5.38199 27.6883 6.06989C28.3149 6.66078 28.7579 7.4303 28.9613 8.2812C29.4637 10.2549 29.2579 12.262 29.2821 14.2565C29.2816 14.6299 29.1841 14.9963 28.9997 15.3174C28.8439 15.5818 28.6054 15.7834 28.3236 15.8888C28.0419 15.9941 27.7337 15.997 27.4502 15.8968C26.9519 15.7426 26.5484 15.1277 26.5423 14.4379C26.5302 12.9789 26.504 11.52 26.5423 10.0611C26.5807 8.60217 25.6345 7.62677 24.3231 7.39334C23.4031 7.23078 22.0252 8.12698 21.6822 9.13363C21.5548 9.51762 21.4867 9.91992 21.4804 10.3258C21.4562 11.7333 21.4562 13.1401 21.4804 14.5462C21.4804 15.2048 20.9902 15.7967 20.5564 15.8989C20.2542 15.9951 19.9286 15.9771 19.6381 15.848C19.3475 15.719 19.1109 15.4873 18.9707 15.1944C18.887 14.9904 18.8477 14.7698 18.8557 14.5483C18.8557 11.8577 18.8678 9.1649 18.8395 6.47422C18.8254 6.14543 18.9295 5.82286 19.1317 5.56855C19.334 5.31424 19.6201 5.14614 19.935 5.09658C20.6512 5.00279 21.204 5.4759 21.3493 6.41378Z" fill="#010040"/>
<path id="Vector_6" d="M48.7055 5.06714C49.6659 4.9768 50.6312 5.18635 51.4512 5.66315C52.2256 6.13202 52.2193 6.72208 51.9519 7.3479C51.7397 7.82868 50.6788 8.10881 50.142 7.80683C48.4784 6.89095 46.2441 7.95782 45.7837 9.59488C45.4442 10.8048 45.9195 12.4399 47.1141 13.0577C48.175 13.6041 49.2465 13.5802 50.316 13.1432C50.9843 12.871 51.8989 13.022 52.162 13.5544C52.4612 14.1504 52.3954 14.9094 51.64 15.2829C50.4139 15.9096 48.9926 16.1162 47.6212 15.867C46.3863 15.6564 45.3148 15.2531 44.4384 14.4286C43.7172 13.7879 43.2439 12.9408 43.0932 12.0207C42.9532 11.3294 42.8927 10.626 42.9128 9.92269C43.0635 7.95981 43.9907 6.38235 45.9619 5.5519C46.8001 5.20224 47.7697 5.12873 48.6779 4.93005L48.7055 5.06714Z" fill="#010040"/>
<path id="Vector_7" d="M56.5144 8.45849C56.5144 10.5164 56.5144 12.5743 56.5144 14.6323C56.5144 15.439 56.1312 15.9576 55.5338 15.9699C54.8592 15.9843 54.4261 15.4822 54.4261 14.6343C54.4197 10.5034 54.4197 6.37381 54.4261 2.24561C54.4261 1.35865 54.8334 0.901788 55.5532 0.916193C56.1408 0.926483 56.5079 1.43273 56.5079 2.24355C56.5122 4.31383 56.5144 6.38547 56.5144 8.45849Z" fill="#010040"/>
<path id="Vector_8" d="M3.13897 8.48772C3.13897 10.5214 3.13897 12.5537 3.13897 14.5847C3.13897 15.4539 2.56873 15.9254 1.61914 15.9685C0.717875 16.0095 0.000244141 15.3125 0.000244141 14.558C0.000244141 10.492 0.000244141 6.4267 0.000244141 2.36206C0.000244141 1.73063 0.483497 1.1156 1.0489 0.984396C1.85835 0.799888 2.51074 0.984393 2.94084 1.58097C3.07639 1.79847 3.14222 2.04238 3.13172 2.28825C3.14381 4.35474 3.13897 6.42123 3.13897 8.48772Z" fill="#010040"/>
<g id="Premium">
<path d="M89.8867 16.0226V1.29542H96.3561C99.4472 1.29542 101.169 3.41507 101.169 5.91008C101.169 8.40509 99.4252 10.5247 96.3561 10.5247H92.47V16.0226H89.8867ZM98.5199 5.91008C98.5199 4.49698 97.4601 3.56963 96.0028 3.56963H92.47V8.25053H96.0028C97.4601 8.25053 98.5199 7.32318 98.5199 5.91008Z" fill="#010040"/>
<path d="M102.812 16.0226V5.35809H105.131V6.92574C105.925 5.91008 107.206 5.11521 108.597 5.11521V7.4115C108.398 7.36734 108.155 7.34526 107.868 7.34526C106.897 7.34526 105.594 8.00765 105.131 8.75836V16.0226H102.812Z" fill="#010040"/>
<path d="M109.363 10.6793C109.363 7.58814 111.615 5.09313 114.772 5.09313C117.974 5.09313 120.027 7.54398 120.027 10.9001V11.4521H111.792C111.968 13.0639 113.183 14.3887 115.192 14.3887C116.23 14.3887 117.466 13.9692 118.217 13.2185L119.277 14.742C118.217 15.7576 116.649 16.2875 114.949 16.2875C111.747 16.2875 109.363 14.0575 109.363 10.6793ZM114.772 6.99198C112.785 6.99198 111.88 8.51548 111.769 9.81819H117.775C117.731 8.55964 116.87 6.99198 114.772 6.99198Z" fill="#010040"/>
<path d="M134.945 16.0226V9.06748C134.945 7.91933 134.437 7.14654 133.201 7.14654C132.163 7.14654 131.192 7.87517 130.728 8.55964V16.0226H128.41V9.06748C128.41 7.91933 127.902 7.14654 126.643 7.14654C125.628 7.14654 124.678 7.87517 124.192 8.58172V16.0226H121.874V5.35809H124.192V6.81535C124.634 6.15295 126.047 5.09313 127.659 5.09313C129.249 5.09313 130.22 5.888 130.573 7.05822C131.192 6.08672 132.605 5.09313 134.195 5.09313C136.16 5.09313 137.264 6.15295 137.264 8.31677V16.0226H134.945Z" fill="#010040"/>
<path d="M140.973 3.59171C140.2 3.59171 139.538 2.9514 139.538 2.15653C139.538 1.36166 140.2 0.721344 140.973 0.721344C141.768 0.721344 142.408 1.36166 142.408 2.15653C142.408 2.9514 141.768 3.59171 140.973 3.59171ZM139.825 16.0226V5.35809H142.143V16.0226H139.825Z" fill="#010040"/>
<path d="M151.907 16.0226V14.6095C151.134 15.4706 149.81 16.2875 148.132 16.2875C145.835 16.2875 144.709 15.0952 144.709 12.9093V5.35809H147.028V12.0703C147.028 13.7263 147.867 14.2341 149.169 14.2341C150.34 14.2341 151.355 13.5717 151.907 12.8431V5.35809H154.226V16.0226H151.907Z" fill="#010040"/>
<path d="M169.867 16.0226V9.06748C169.867 7.91933 169.359 7.14654 168.122 7.14654C167.084 7.14654 166.113 7.87517 165.649 8.55964V16.0226H163.331V9.06748C163.331 7.91933 162.823 7.14654 161.565 7.14654C160.549 7.14654 159.599 7.87517 159.114 8.58172V16.0226H156.795V5.35809H159.114V6.81535C159.555 6.15295 160.968 5.09313 162.58 5.09313C164.17 5.09313 165.141 5.888 165.495 7.05822C166.113 6.08672 167.526 5.09313 169.116 5.09313C171.081 5.09313 172.185 6.15295 172.185 8.31677V16.0226H169.867Z" fill="#010040"/>
</g>
</g>
</svg>
