<svg width="182" height="24" viewBox="0 0 182 24" fill="none" xmlns="http://www.w3.org/2000/svg">
<g id="Group 403">
<path id="Vector" d="M42.9913 7.52338C43.9587 8.70495 44.2058 10.099 44.0383 11.5732C43.8708 13.0475 43.2593 14.2551 41.9108 15.0009C42.6814 15.5494 43.3494 16.048 43.6907 16.8979C44.0722 17.835 44.1501 18.8748 43.9127 19.8616C43.7458 20.6834 43.3707 21.4444 42.8259 22.0665C42.2828 22.6953 41.5841 23.1586 40.8052 23.4063C40.1938 23.5854 39.5701 23.7158 38.9395 23.7965C36.8456 24.1087 34.3329 22.7125 33.4325 20.7613C33.1644 20.1781 33.4136 19.1982 33.9078 18.9055C34.6323 18.4719 35.5013 18.6366 35.8593 19.3998C36.6425 21.0583 38.0412 21.2578 39.4191 21.0085C40.5163 20.809 41.3036 20.0719 41.3204 18.7516C41.3392 17.6957 40.6922 16.9933 39.7771 16.7266C39.2076 16.5619 38.5919 16.5575 37.9952 16.4925C36.0499 16.2757 34.0167 14.9749 33.3696 12.7483C32.7854 10.7321 33.022 8.84587 34.2512 7.14615C34.8546 6.31346 35.7108 5.71486 36.6823 5.44642C37.256 5.27948 37.857 5.07786 38.437 5.09737C39.2043 5.12858 39.9632 5.27463 40.6901 5.53097C41.0167 5.64588 41.1654 5.61119 41.3183 5.39222C42.0218 4.44263 43.2028 4.76783 43.4918 5.6242C43.6028 5.96024 43.5253 6.39385 43.4436 6.76024C43.3829 7.01173 43.1693 7.2307 42.9913 7.52338ZM41.4418 10.8144C41.3015 10.2919 41.2324 9.73043 41.0042 9.25563C40.443 8.08273 39.4714 7.63395 38.2234 7.76186C37.8853 7.78214 37.5553 7.87674 37.2553 8.03935C36.9552 8.20196 36.6921 8.42886 36.4833 8.70495C35.6018 9.87135 35.6458 11.1592 36.1441 12.4318C36.5797 13.5375 38.3616 14.2616 39.3855 13.8323C40.6587 13.3012 41.3769 12.3494 41.4418 10.8144Z" fill="white"/>
<path id="Vector_2" d="M79.0543 14.9947C78.7279 15.3533 78.475 15.761 78.1118 16.0064C77.2017 16.6254 76.0409 15.8378 76.0495 14.8858C76.082 10.8667 76.0604 6.8475 76.0604 2.82833C76.0604 2.49109 76.0604 2.15171 76.0712 1.81447C76.1036 1.0482 76.6267 0.587158 77.4525 0.587158C78.2783 0.587158 78.8684 1.06741 78.8792 1.84222C78.8987 3.17411 78.8792 4.50814 78.8792 5.84217C78.8792 5.99799 78.8965 6.1538 78.903 6.25199C79.4758 5.92968 80.0271 5.56469 80.6323 5.28935C81.7348 4.78135 82.8675 4.78135 84.0608 5.04176C85.3176 5.28564 86.4339 5.99124 87.1844 7.01612C87.8003 7.80742 88.1448 8.77186 88.168 9.76956C88.1945 10.6994 88.122 11.6294 87.9518 12.5443C87.6103 14.1366 86.5597 15.2359 85.0984 15.9445C83.8965 16.5251 82.5952 16.4995 81.3241 16.3522C80.8705 16.2957 80.434 16.1457 80.043 15.9118C79.6519 15.6779 79.3151 15.3655 79.0543 14.9947ZM85.3902 10.713C85.4637 8.6938 83.9873 7.51131 82.3358 7.46649C81.4886 7.45708 80.6713 7.77545 80.0589 8.35347C79.4464 8.93148 79.0874 9.72323 79.0586 10.5593C78.983 12.4654 80.6734 13.8464 82.1628 13.889C83.9527 13.9381 85.507 12.348 85.3902 10.713Z" fill="white"/>
<path id="Vector_3" d="M14.5336 14.7072C14.011 15.3146 13.3257 15.7903 12.543 16.089C11.7603 16.3877 10.9063 16.4994 10.0625 16.4135C7.68132 16.2359 5.79643 15.2337 4.92272 13.1447C4.4176 12.0049 4.28101 10.758 4.52896 9.55028C4.76195 8.44446 5.12309 7.46129 5.9269 6.59017C6.6442 5.83884 7.59536 5.30221 8.65521 5.05091C9.32553 4.89747 10.0142 4.82006 10.7055 4.82044C11.3966 4.78888 12.0866 4.89974 12.7238 5.14472C13.3609 5.38969 13.9287 5.76243 14.3844 6.23495C14.4369 6.2714 14.495 6.30061 14.5569 6.32164C14.664 5.79305 14.8807 5.39978 15.4888 5.1968C16.514 4.84793 17.616 5.4315 17.623 6.43159C17.6416 9.18026 17.6347 11.9289 17.623 14.667C17.623 15.3669 17.0219 15.9843 16.3439 16.035C15.328 16.109 14.7968 15.739 14.5336 14.7072ZM11.0573 7.345C9.13983 7.17373 7.52754 8.5967 7.5322 10.5525C7.5322 12.6457 9.16313 13.8742 11.0061 13.8868C12.849 13.8995 14.4613 12.6309 14.473 10.5546C14.4846 8.66859 12.9096 7.17162 11.0573 7.345Z" fill="white"/>
<path id="Vector_4" d="M70.7542 14.8374C70.1709 15.4466 69.4321 15.9069 68.607 16.175C67.7819 16.4432 66.8976 16.5104 66.0372 16.3704C65.2452 16.2822 64.4926 15.9974 63.8573 15.5454C63.2219 15.0934 62.7267 14.4906 62.4229 13.7993C61.9506 12.7739 61.7157 11.6662 61.7337 10.5493C61.7197 9.16306 61.715 7.77677 61.7337 6.38829C61.7501 5.21225 62.9486 4.41727 64.1284 5.02391C64.8293 5.39183 64.8971 6.05541 64.9111 6.68614C64.9462 8.1447 64.9345 9.60544 64.9111 11.0662C64.9111 12.0627 65.2545 12.8992 66.1774 13.4117C66.5689 13.6357 67.0103 13.7719 67.4672 13.8095C67.9241 13.847 68.3841 13.7851 68.8112 13.6283C69.2384 13.4716 69.621 13.2244 69.9293 12.9061C70.2376 12.5878 70.4632 12.2069 70.5884 11.7933C70.7379 11.2364 70.8094 10.6636 70.801 10.0894C70.8314 8.77542 70.8407 7.46141 70.801 6.14739C70.78 5.38307 71.5439 4.83338 72.2822 4.83338C73.0205 4.83338 73.8335 5.49038 73.8359 6.19557C73.8483 9.11561 73.8483 12.0356 73.8359 14.9557C73.8359 15.5448 73.2915 16.1492 72.7518 16.2149C71.7589 16.3332 71.3033 16.0901 71.0159 15.3017C70.9426 15.1404 70.8551 14.9851 70.7542 14.8374Z" fill="white"/>
<path id="Vector_5" d="M22.4833 6.37775C22.8275 6.1407 23.1207 5.96291 23.3948 5.74781C24.2382 5.09894 25.2727 4.77114 26.3232 4.81994C27.3737 4.86874 28.3755 5.29114 29.1591 6.01559C29.819 6.63787 30.2856 7.44827 30.4998 8.34439C31.0288 10.423 30.8121 12.5367 30.8376 14.6372C30.8371 15.0304 30.7344 15.4163 30.5402 15.7544C30.3761 16.0329 30.125 16.2452 29.8282 16.3562C29.5315 16.4671 29.207 16.4701 28.9084 16.3646C28.3836 16.2022 27.9587 15.5547 27.9523 14.8282C27.9395 13.2917 27.9119 11.7553 27.9523 10.2188C27.9927 8.6824 26.9962 7.65518 25.6151 7.40935C24.6463 7.23815 23.1951 8.18196 22.8339 9.24211C22.6997 9.6465 22.628 10.0702 22.6214 10.4976C22.5959 11.9799 22.5959 13.4615 22.6214 14.9423C22.6214 15.6359 22.1051 16.2592 21.6483 16.3668C21.33 16.4682 20.9872 16.4492 20.6812 16.3133C20.3752 16.1773 20.126 15.9333 19.9783 15.6249C19.8902 15.41 19.8488 15.1777 19.8572 14.9445C19.8572 12.1109 19.8699 9.27503 19.8402 6.4414C19.8254 6.09513 19.935 5.75543 20.1479 5.48761C20.3609 5.21978 20.6622 5.04276 20.9939 4.99056C21.7482 4.89179 22.3303 5.39004 22.4833 6.37775Z" fill="white"/>
<path id="Vector_6" d="M51.2932 4.95955C52.3046 4.86441 53.3212 5.0851 54.1847 5.58724C55.0004 6.08102 54.9937 6.70242 54.7121 7.36149C54.4886 7.86782 53.3713 8.16283 52.806 7.84481C51.0541 6.88027 48.701 8.00382 48.2161 9.72786C47.8586 11.0021 48.3592 12.724 49.6172 13.3747C50.7345 13.9501 51.863 13.925 52.9892 13.4647C53.6931 13.178 54.6562 13.337 54.9333 13.8978C55.2484 14.5255 55.1791 15.3247 54.3836 15.7181C53.0923 16.3781 51.5955 16.5957 50.1513 16.3332C48.8508 16.1114 47.7223 15.6867 46.7994 14.8184C46.0398 14.1436 45.5414 13.2516 45.3827 12.2825C45.2353 11.5545 45.1716 10.8138 45.1927 10.0731C45.3514 8.00591 46.3279 6.34464 48.4038 5.47007C49.2865 5.10183 50.3077 5.02441 51.2641 4.81519L51.2932 4.95955Z" fill="white"/>
<path id="Vector_7" d="M59.5168 8.53054C59.5168 10.6978 59.5168 12.8651 59.5168 15.0323C59.5168 15.8819 59.1133 16.4281 58.4842 16.4411C57.7737 16.4562 57.3176 15.9274 57.3176 15.0345C57.3108 10.6841 57.3108 6.3351 57.3176 1.98756C57.3176 1.05347 57.7466 0.572335 58.5045 0.587506C59.1234 0.598342 59.5101 1.13149 59.5101 1.98539C59.5146 4.16566 59.5168 6.34738 59.5168 8.53054Z" fill="white"/>
<path id="Vector_8" d="M3.30549 8.56132C3.30549 10.7031 3.30549 12.8434 3.30549 14.9822C3.30549 15.8976 2.70496 16.3942 1.70491 16.4396C0.75576 16.4827 0 15.7487 0 14.9542C0 10.6721 0 6.39079 0 2.11019C0 1.44521 0.508929 0.797509 1.10438 0.659332C1.95683 0.465021 2.64389 0.659329 3.09683 1.2876C3.23959 1.51666 3.30891 1.77352 3.29786 2.03246C3.31058 4.20875 3.30549 6.38503 3.30549 8.56132Z" fill="white"/>
<g id="Premium">
<path d="M94.6625 16.497V0.987385H101.476C104.731 0.987385 106.545 3.21966 106.545 5.84723C106.545 8.4748 104.708 10.7071 101.476 10.7071H97.3831V16.497H94.6625ZM103.754 5.84723C103.754 4.35905 102.638 3.38243 101.104 3.38243H97.3831V8.31203H101.104C102.638 8.31203 103.754 7.33541 103.754 5.84723Z" fill="white"/>
<path d="M108.275 16.497V5.26591H110.716V6.91686C111.553 5.84723 112.902 5.01013 114.367 5.01013V7.42843C114.158 7.38192 113.902 7.35867 113.6 7.35867C112.576 7.35867 111.205 8.05625 110.716 8.84685V16.497H108.275Z" fill="white"/>
<path d="M115.173 10.8698C115.173 7.61445 117.545 4.98688 120.87 4.98688C124.242 4.98688 126.404 7.56794 126.404 11.1024V11.6837H117.731C117.917 13.3812 119.196 14.7763 121.312 14.7763C122.405 14.7763 123.707 14.3345 124.498 13.5439L125.614 15.1484C124.498 16.218 122.847 16.7761 121.056 16.7761C117.685 16.7761 115.173 14.4275 115.173 10.8698ZM120.87 6.98662C118.777 6.98662 117.824 8.59107 117.708 9.96299H124.033C123.986 8.63757 123.079 6.98662 120.87 6.98662Z" fill="white"/>
<path d="M142.115 16.497V9.17239C142.115 7.96324 141.58 7.14939 140.278 7.14939C139.185 7.14939 138.162 7.91674 137.674 8.63757V16.497H135.232V9.17239C135.232 7.96324 134.697 7.14939 133.372 7.14939C132.302 7.14939 131.302 7.91674 130.791 8.66083V16.497H128.349V5.26591H130.791V6.8006C131.256 6.10301 132.744 4.98688 134.442 4.98688C136.116 4.98688 137.139 5.82398 137.511 7.05638C138.162 6.03325 139.65 4.98688 141.324 4.98688C143.394 4.98688 144.557 6.10301 144.557 8.38179V16.497H142.115Z" fill="white"/>
<path d="M148.463 3.40568C147.649 3.40568 146.952 2.73135 146.952 1.89425C146.952 1.05714 147.649 0.382812 148.463 0.382812C149.3 0.382812 149.975 1.05714 149.975 1.89425C149.975 2.73135 149.3 3.40568 148.463 3.40568ZM147.254 16.497V5.26591H149.696V16.497H147.254Z" fill="white"/>
<path d="M159.978 16.497V15.0089C159.164 15.9157 157.769 16.7761 156.002 16.7761C153.584 16.7761 152.398 15.5204 152.398 13.2184V5.26591H154.839V12.3348C154.839 14.0787 155.723 14.6136 157.095 14.6136C158.327 14.6136 159.397 13.916 159.978 13.1486V5.26591H162.42V16.497H159.978Z" fill="white"/>
<path d="M178.892 16.497V9.17239C178.892 7.96324 178.357 7.14939 177.055 7.14939C175.962 7.14939 174.939 7.91674 174.45 8.63757V16.497H172.009V9.17239C172.009 7.96324 171.474 7.14939 170.149 7.14939C169.079 7.14939 168.079 7.91674 167.568 8.66083V16.497H165.126V5.26591H167.568V6.8006C168.033 6.10301 169.521 4.98688 171.218 4.98688C172.893 4.98688 173.916 5.82398 174.288 7.05638C174.939 6.03325 176.427 4.98688 178.101 4.98688C180.171 4.98688 181.333 6.10301 181.333 8.38179V16.497H178.892Z" fill="white"/>
</g>
</g>
</svg>
