<svg width="24" height="17" viewBox="0 0 24 17" fill="none" xmlns="http://www.w3.org/2000/svg">
<g id="Group 379">
<path id="Vector" d="M22.9244 7.05715C23.1402 7.05715 23.3472 6.9714 23.4999 6.81877C23.6525 6.66613 23.7383 6.45911 23.7383 6.24325V2.17376C23.7383 1.74204 23.5668 1.328 23.2615 1.02273C22.9562 0.717459 22.5422 0.545959 22.1105 0.545959H2.57689C2.14518 0.545959 1.73114 0.717459 1.42587 1.02273C1.1206 1.328 0.949097 1.74204 0.949097 2.17376V6.24325C0.949097 6.45911 1.03485 6.66613 1.18748 6.81877C1.34012 6.9714 1.54714 7.05715 1.763 7.05715C2.19471 7.05715 2.60875 7.22865 2.91402 7.53392C3.21929 7.83919 3.39079 8.25323 3.39079 8.68495C3.39079 9.11667 3.21929 9.53071 2.91402 9.83598C2.60875 10.1412 2.19471 10.3127 1.763 10.3127C1.54714 10.3127 1.34012 10.3985 1.18748 10.5511C1.03485 10.7038 0.949097 10.9108 0.949097 11.1266V15.1961C0.949097 15.6279 1.1206 16.0419 1.42587 16.3472C1.73114 16.6524 2.14518 16.8239 2.57689 16.8239H22.1105C22.5422 16.8239 22.9562 16.6524 23.2615 16.3472C23.5668 16.0419 23.7383 15.6279 23.7383 15.1961V11.1266C23.7383 10.9108 23.6525 10.7038 23.4999 10.5511C23.3472 10.3985 23.1402 10.3127 22.9244 10.3127C22.4927 10.3127 22.0786 10.1412 21.7733 9.83598C21.4681 9.53071 21.2966 9.11667 21.2966 8.68495C21.2966 8.25323 21.4681 7.83919 21.7733 7.53392C22.0786 7.22865 22.4927 7.05715 22.9244 7.05715ZM22.1105 11.8347V15.1961H16.4132V12.7544H14.7854V15.1961H2.57689V11.8347C3.27359 11.6526 3.89025 11.2447 4.33038 10.6748C4.7705 10.1048 5.00925 9.40505 5.00925 8.68495C5.00925 7.96485 4.7705 7.26507 4.33038 6.69513C3.89025 6.12519 3.27359 5.71725 2.57689 5.53516V2.17376H14.7854V4.61545H16.4132V2.17376H22.1105V5.53516C21.4138 5.71725 20.7971 6.12519 20.357 6.69513C19.9169 7.26507 19.6781 7.96485 19.6781 8.68495C19.6781 9.40505 19.9169 10.1048 20.357 10.6748C20.7971 11.2447 21.4138 11.6526 22.1105 11.8347Z" fill="#010040"/>
<path id="Vector_2" d="M14.7853 6.24323H16.4131V11.1266H14.7853V6.24323Z" fill="#010040"/>
</g>
</svg>
