<svg width="110" height="30" viewBox="0 0 110 30" fill="none" xmlns="http://www.w3.org/2000/svg">
<g clip-path="url(#clip0_1771_760)">
<path d="M13.5902 0.725098C13.7809 0.854651 13.9807 0.970219 14.1878 1.07091C14.5354 1.1986 14.8508 1.40211 15.1114 1.66692C15.3721 1.93174 15.5717 2.25134 15.6959 2.60294C15.9908 3.45339 16.5884 3.91783 17.2897 4.32195C18.1523 4.81855 19.0289 5.29103 19.8796 5.8017C20.0788 5.9163 20.3159 6.13545 20.3278 6.32042C20.3477 6.62602 20.2939 7.07035 20.0967 7.22315C19.8995 7.37595 19.4214 7.3659 19.1644 7.2332C18.1304 6.6984 17.1263 6.10127 16.1282 5.49811C15.8374 5.32119 15.6103 5.31113 15.3752 5.53631C14.8811 6.0108 14.3791 6.47523 13.9129 6.97585C13.811 7.1403 13.7643 7.33342 13.7794 7.52674C13.7655 8.36514 13.7794 9.20152 13.7794 10.0399C13.7794 11.0452 14.0304 11.3769 14.919 11.7891C15.0933 11.8738 15.2865 11.9109 15.4794 11.8968C15.6724 11.8827 15.8583 11.8178 16.0187 11.7087C17.3036 10.9849 18.5946 10.2751 19.8696 9.53527C20.3876 9.23369 20.6227 8.69688 20.7302 8.12789C20.8159 7.73273 21.0162 7.37229 21.3058 7.0926C21.5954 6.81291 21.961 6.62667 22.3559 6.55767C23.4655 6.43301 24.1867 7.04824 24.5692 7.84843C24.9517 8.64862 24.633 9.26988 24.2903 9.9414C24.1028 10.2753 23.9867 10.6451 23.9497 11.0271C23.9078 12.2153 23.9397 13.4056 23.9317 14.5938C23.9317 15.1809 23.607 15.5789 23.1548 15.599C22.6448 15.6232 22.3459 15.3518 22.3419 14.831C22.3419 13.677 22.3419 12.5209 22.3419 11.3649C22.3419 10.5908 21.8479 10.2872 21.1466 10.6652C20.0748 11.2482 19.0189 11.8595 17.9591 12.4566L17.3315 12.8044C16.7458 13.1261 16.2796 13.4639 16.3035 14.2882C16.3275 15.1125 16.4749 15.6956 17.2997 16.0474C17.969 16.3389 18.5647 16.7993 19.1982 17.1773C19.7481 17.505 20.3079 17.5493 20.8597 17.1773C22.7743 15.9147 24.7366 16.9481 25.2765 18.7857C25.7227 20.2936 25.0474 21.9926 23.1886 22.4711C22.6866 22.5997 22.2244 22.4992 21.7463 22.5073C21.1685 22.5073 20.5509 22.7887 20.029 23.0702C18.9253 23.6553 17.8654 24.3228 16.7857 24.9541C16.6111 25.0633 16.4025 25.1032 16.2004 25.0661C15.9984 25.0289 15.8171 24.9174 15.6919 24.753C15.6316 24.6664 15.5892 24.5684 15.5672 24.4648C15.5453 24.3613 15.5442 24.2544 15.5641 24.1504C15.584 24.0465 15.6245 23.9476 15.683 23.8598C15.7416 23.7719 15.8172 23.6969 15.9051 23.6392C16.9171 23.0159 17.9571 22.4268 18.997 21.8237C19.8636 21.3291 19.7043 21.2989 19.6425 20.362C19.5608 19.1195 18.7022 18.7536 17.8993 18.2429C17.2756 17.8453 16.6252 17.4919 15.9529 17.1854C15.686 17.0647 15.3194 17.125 15.0046 17.1673C14.7984 17.2123 14.6062 17.3075 14.4448 17.4447C14.0663 17.7342 13.7635 18.0479 13.7754 18.6108C13.8113 20.0685 13.7973 21.5261 13.7754 22.9837C13.7781 23.4713 13.9664 23.9392 14.3014 24.2906C15.1281 25.2838 15.3393 26.5726 14.3014 27.4592C13.4507 28.189 11.6617 28.1729 11.0381 26.5504C10.7333 25.7583 10.0659 25.4326 9.41647 25.1129C9.1794 24.9963 8.70923 25.131 8.4622 25.314C7.25293 26.2026 6.08748 27.1516 4.89614 28.0684C4.41602 28.4383 3.91199 28.7781 3.4219 29.138C3.398 29.1541 3.4219 29.2305 3.4219 29.2787H2.82424C2.82424 29.2305 2.82424 29.142 2.81029 29.138C2.16282 28.9711 2.09509 28.4444 2.08114 27.9096C2.06321 27.1395 2.06122 26.3675 2.08114 25.5974C2.0908 25.1679 2.13746 24.7401 2.2206 24.3187C2.29829 23.9307 2.61904 23.8302 2.97764 23.8543C3.33624 23.8784 3.5753 24.0172 3.62909 24.3992C3.68288 24.8596 3.73667 25.322 3.76456 25.7864C3.78648 26.1242 3.76456 26.466 3.76456 26.9143L5.00969 25.9614C6.10342 25.1189 7.17125 24.2403 8.30681 23.4602C8.49245 23.3515 8.69853 23.2829 8.91189 23.259C9.12526 23.2352 9.34121 23.2564 9.54596 23.3215C10.2313 23.5889 10.8429 24.0493 11.4764 24.4233C11.7164 24.267 11.91 24.048 12.0367 23.7896C12.1633 23.5312 12.2182 23.243 12.1956 22.9556C12.1637 21.6327 12.1418 20.3057 12.1956 18.9868C12.2354 18.1363 11.9964 17.5674 11.2154 17.1773C10.7513 16.9421 10.2831 16.8617 9.89062 17.0667C8.75904 17.6578 7.69918 18.3736 6.56561 18.9828C5.83248 19.3849 5.82451 20.1107 5.61533 20.7541C5.32447 21.6528 4.00562 22.6379 3.1151 22.6601C2.41731 22.6733 1.73536 22.4495 1.17867 22.0247C-0.391192 20.8908 -0.391191 18.3716 1.16074 17.2678C1.45015 17.0863 1.68752 16.8317 1.84932 16.5291C2.01112 16.2265 2.09172 15.8865 2.08314 15.5428C2.08314 14.7064 2.07118 13.868 2.08314 13.0316C2.0915 12.7674 2.13849 12.5059 2.22259 12.2555C2.24245 12.1738 2.2787 12.0971 2.32909 12.0301C2.37949 11.9631 2.44296 11.9073 2.51559 11.866C2.58822 11.8247 2.66846 11.7989 2.75136 11.7902C2.83426 11.7815 2.91805 11.79 2.99756 11.8152C3.26035 11.9007 3.4793 12.087 3.60718 12.3339C3.72417 12.6798 3.77751 13.0443 3.76456 13.4096C3.78448 14.3485 3.75062 15.2874 3.78648 16.2243C3.79713 16.4915 3.90827 16.7446 4.09726 16.932C4.42135 17.1708 4.78025 17.3574 5.1611 17.4849C5.36408 17.5653 5.58966 17.5653 5.79264 17.4849C6.92421 16.8818 8.02591 16.2304 9.15748 15.6332C9.75515 15.3156 9.8169 14.8109 9.80694 14.2259C9.81027 14.0056 9.75009 13.7892 9.63372 13.6028C9.51735 13.4165 9.34981 13.2683 9.15151 13.1764C8.41638 12.7622 7.6952 12.3239 6.97402 11.8876C5.83049 11.198 4.71086 10.44 3.26651 10.7979C3.24997 10.8 3.23324 10.8 3.2167 10.7979C2.39392 10.8864 1.84606 10.4742 1.52532 9.76447C1.23047 9.11105 1.18863 8.43752 1.59106 7.78409C2.03333 7.07035 2.67084 6.76274 3.49163 6.7547C3.87413 6.7547 4.30844 6.7748 4.62918 6.60994C5.70896 6.05503 6.74093 5.40362 7.80676 4.82659C8.08567 4.67379 8.37255 4.42448 8.75506 4.65168C9.35272 5.01759 9.41049 5.72932 8.6933 6.16159C7.69719 6.76475 6.71503 7.34177 5.72889 7.94091C5.64411 7.98774 5.57028 8.05239 5.51239 8.13049C5.4545 8.20858 5.41388 8.29831 5.3933 8.39361C5.37271 8.4889 5.37264 8.58754 5.39307 8.68287C5.4135 8.7782 5.45397 8.86799 5.51173 8.94618C5.70511 9.19827 5.94036 9.4146 6.20702 9.58553C7.2868 10.2557 8.37587 10.9031 9.47424 11.5277C10.0082 11.8313 10.5142 12.2193 11.2174 11.8092C11.8649 11.4312 12.2534 11.005 12.2016 10.2008C12.1438 9.30004 12.2016 8.39127 12.1797 7.48854C12.1883 7.26126 12.1279 7.03674 12.0063 6.84517C11.7396 6.53614 11.4463 6.25155 11.1298 5.99472C9.36666 4.4466 9.84878 2.03798 11.7792 1.09303C12.0442 0.964352 12.3171 0.853773 12.5761 0.735151L13.5902 0.725098Z" fill="#020063"/>
<path d="M68.9625 12.7239C69.8829 13.8196 70.118 15.1124 69.9586 16.4796C69.7992 17.8467 69.2175 18.9666 67.9345 19.6582C68.6676 20.1669 69.3032 20.6293 69.6279 21.4174C69.9909 22.2864 70.065 23.2508 69.8391 24.1658C69.6804 24.9279 69.3235 25.6337 68.8051 26.2106C68.2884 26.7937 67.6236 27.2233 66.8826 27.4531C66.3009 27.6191 65.7075 27.7401 65.1076 27.815C63.1153 28.1045 60.7247 26.8097 59.868 25.0002C59.613 24.4594 59.8501 23.5506 60.3203 23.2792C61.0096 22.8771 61.8363 23.0299 62.177 23.7376C62.9221 25.2757 64.2529 25.4606 65.5638 25.2294C66.6077 25.0444 67.3568 24.3609 67.3727 23.1364C67.3906 22.1573 66.775 21.5059 65.9044 21.2586C65.3626 21.1058 64.7769 21.1018 64.2091 21.0415C62.3583 20.8404 60.4239 19.6341 59.8083 17.5693C59.2524 15.6995 59.4776 13.9503 60.647 12.374C61.2211 11.6018 62.0357 11.0467 62.96 10.7978C63.5058 10.643 64.0776 10.456 64.6294 10.4741C65.3595 10.503 66.0815 10.6385 66.7731 10.8762C67.0838 10.9828 67.2253 10.9506 67.3707 10.7475C68.0401 9.86691 69.1637 10.1685 69.4386 10.9627C69.5442 11.2743 69.4705 11.6764 69.3928 12.0162C69.335 12.2494 69.1318 12.4525 68.9625 12.7239ZM67.4883 15.7759C67.3548 15.2913 67.289 14.7706 67.0719 14.3303C66.538 13.2426 65.6136 12.8264 64.4262 12.945C64.1046 12.9638 63.7906 13.0516 63.5051 13.2024C63.2197 13.3532 62.9693 13.5636 62.7707 13.8196C61.932 14.9013 61.9738 16.0955 62.448 17.2757C62.8623 18.3011 64.5577 18.9726 65.5319 18.5745C66.7432 18.082 67.4265 17.1993 67.4883 15.7759Z" fill="#020063"/>
<path d="M101.601 20.1107C101.3 20.4484 101.067 20.8325 100.733 21.0637C99.8939 21.6467 98.8241 20.9048 98.8321 20.0081C98.862 16.2223 98.842 12.4365 98.842 8.65061C98.842 8.33295 98.842 8.01327 98.852 7.69561C98.8819 6.97383 99.364 6.53955 100.125 6.53955C100.886 6.53955 101.43 6.99192 101.44 7.72175C101.458 8.97632 101.44 10.2329 101.44 11.4895C101.44 11.6363 101.456 11.783 101.462 11.8755C101.99 11.5719 102.498 11.2281 103.056 10.9688C104.072 10.4903 105.116 10.4903 106.215 10.7355C107.373 10.9653 108.402 11.6299 109.094 12.5953C109.662 13.3406 109.979 14.2491 110 15.1889C110.025 16.0647 109.958 16.9408 109.801 17.8026C109.486 19.3024 108.518 20.3379 107.171 21.0054C106.064 21.5522 104.864 21.5281 103.693 21.3894C103.275 21.3362 102.873 21.1949 102.512 20.9746C102.152 20.7543 101.842 20.4599 101.601 20.1107ZM107.44 16.0775C107.508 14.1756 106.147 13.0617 104.625 13.0195C103.845 13.0107 103.091 13.3105 102.527 13.855C101.963 14.3995 101.632 15.1452 101.605 15.9328C101.536 17.7282 103.093 19.029 104.466 19.0692C106.116 19.1155 107.548 17.6176 107.44 16.0775Z" fill="#020063"/>
<path d="M43.0042 19.978C42.5574 20.5556 41.9714 21.0079 41.3022 21.292C40.6329 21.576 39.9027 21.6822 39.1812 21.6006C37.1451 21.4317 35.5334 20.4787 34.7864 18.4923C34.3544 17.4084 34.2377 16.2228 34.4497 15.0743C34.6489 14.0228 34.9577 13.0879 35.645 12.2596C36.2583 11.5452 37.0716 11.0349 37.9779 10.7959C38.551 10.65 39.1399 10.5764 39.731 10.5768C40.322 10.5468 40.912 10.6522 41.4568 10.8851C42.0016 11.1181 42.487 11.4725 42.8767 11.9218C42.9216 11.9565 42.9713 11.9843 43.0242 12.0043C43.1158 11.5016 43.3011 11.1277 43.821 10.9347C44.6976 10.6029 45.6399 11.1578 45.6459 12.1088C45.6618 14.7225 45.6559 17.3362 45.6459 19.9398C45.6459 20.6053 45.1319 21.1924 44.5522 21.2407C43.6836 21.311 43.2294 20.9592 43.0042 19.978ZM40.0319 12.9774C38.3923 12.8145 37.0137 14.1676 37.0176 16.0273C37.0176 18.0178 38.4122 19.1859 39.988 19.198C41.5639 19.21 42.9425 18.0037 42.9524 16.0294C42.9624 14.236 41.6157 12.8125 40.0319 12.9774Z" fill="#020063"/>
<path d="M94.0188 19.994C93.5215 20.5533 92.8914 20.9759 92.1878 21.222C91.4843 21.4682 90.7303 21.5299 89.9966 21.4014C89.3212 21.3204 88.6795 21.0589 88.1377 20.644C87.5959 20.229 87.1737 19.6757 86.9146 19.041C86.5119 18.0996 86.3116 17.0827 86.3269 16.0574C86.315 14.7847 86.311 13.5121 86.3269 12.2374C86.3409 11.1577 87.3629 10.4279 88.3689 10.9848C88.9666 11.3226 89.0244 11.9318 89.0363 12.5108C89.0662 13.8498 89.0562 15.1909 89.0363 16.5319C89.0363 17.4467 89.3292 18.2147 90.1161 18.6852C90.4499 18.8909 90.8263 19.0158 91.216 19.0503C91.6056 19.0848 91.9978 19.0279 92.362 18.8841C92.7262 18.7402 93.0525 18.5133 93.3154 18.221C93.5783 17.9288 93.7706 17.5791 93.8774 17.1994C94.0049 16.6882 94.0658 16.1623 94.0587 15.6352C94.0846 14.4289 94.0926 13.2226 94.0587 12.0162C94.0408 11.3146 94.6922 10.8099 95.3218 10.8099C95.9513 10.8099 96.6446 11.4131 96.6466 12.0605C96.6572 14.7412 96.6572 17.4219 96.6466 20.1026C96.6466 20.6434 96.1824 21.1984 95.7222 21.2587C94.8755 21.3672 94.487 21.1441 94.242 20.4203C94.1795 20.2722 94.1048 20.1296 94.0188 19.994Z" fill="#020063"/>
<path d="M50.1202 12.0727C50.4429 11.8555 50.7178 11.6927 50.9748 11.4956C51.7656 10.9013 52.7356 10.601 53.7206 10.6457C54.7056 10.6904 55.645 11.0773 56.3797 11.7409C56.9985 12.3109 57.4359 13.0533 57.6368 13.8741C58.1329 15.7781 57.9297 17.7142 57.9536 19.6383C57.9531 19.9985 57.8568 20.3519 57.6747 20.6617C57.5208 20.9168 57.2853 21.1112 57.0071 21.2129C56.7289 21.3145 56.4246 21.3172 56.1446 21.2206C55.6526 21.0718 55.2541 20.4787 55.2481 19.8132C55.2362 18.4059 55.2103 16.9985 55.2481 15.5911C55.286 14.1837 54.3516 13.2428 53.0567 13.0176C52.1483 12.8608 50.7876 13.7253 50.4489 14.6964C50.3231 15.0668 50.2559 15.4549 50.2497 15.8464C50.2258 17.2042 50.2258 18.5613 50.2497 19.9178C50.2497 20.5531 49.7656 21.1241 49.3372 21.2226C49.0388 21.3155 48.7173 21.2981 48.4304 21.1736C48.1435 21.0491 47.9099 20.8255 47.7714 20.543C47.6887 20.3462 47.65 20.1334 47.6578 19.9198C47.6578 17.3242 47.6698 14.7266 47.6419 12.131C47.628 11.8138 47.7307 11.5026 47.9304 11.2573C48.1301 11.012 48.4126 10.8498 48.7236 10.802C49.4309 10.7115 49.9767 11.1679 50.1202 12.0727Z" fill="#020063"/>
<path d="M76.4354 10.5648C77.3371 10.4733 78.2435 10.6854 79.0134 11.1679C79.7405 11.6424 79.7345 12.2395 79.4835 12.8728C79.2843 13.3594 78.2882 13.6429 77.7842 13.3373C76.2223 12.4104 74.1245 13.4901 73.6922 15.1468C73.3734 16.3712 73.8197 18.0259 74.9413 18.6511C75.9374 19.204 76.9434 19.1799 77.9475 18.7376C78.5751 18.4621 79.4337 18.6149 79.6807 19.1538C79.9616 19.7569 79.8999 20.525 79.1907 20.9029C78.0394 21.5372 76.705 21.7463 75.4174 21.494C74.2579 21.2809 73.2519 20.8728 72.4291 20.0384C71.7519 19.39 71.3076 18.5328 71.166 17.6016C71.0346 16.9021 70.9778 16.1903 70.9967 15.4785C71.1381 13.4921 72.0087 11.8957 73.8595 11.0553C74.6464 10.7015 75.5569 10.6271 76.4095 10.426L76.4354 10.5648Z" fill="#020063"/>
<path d="M84.1153 13.9122C84.1153 15.9227 84.1153 17.9332 84.1153 19.9438C84.1153 20.7319 83.6411 21.2385 82.902 21.2506C82.0673 21.2647 81.5314 20.7741 81.5314 19.9458C81.5234 15.91 81.5234 11.8755 81.5314 7.84234C81.5314 6.9758 82.0354 6.52946 82.9259 6.54354C83.6531 6.55359 84.1073 7.04818 84.1073 7.84033C84.1126 9.86293 84.1153 11.8869 84.1153 13.9122Z" fill="#020063"/>
<path d="M32.7324 13.9224C32.7324 15.9168 32.7324 17.9099 32.7324 19.9017C32.7324 20.7542 32.2623 21.2166 31.4793 21.2588C30.7362 21.299 30.1445 20.6154 30.1445 19.8756C30.1445 15.888 30.1445 11.9011 30.1445 7.91487C30.1445 7.29563 30.543 6.69247 31.0092 6.56379C31.6765 6.38284 32.2144 6.56379 32.5691 7.14886C32.6808 7.36216 32.7351 7.60136 32.7264 7.84249C32.7364 9.86911 32.7324 11.8957 32.7324 13.9224Z" fill="#020063"/>
</g>
<defs>
<clipPath id="clip0_1771_760">
<rect width="110" height="28.5496" fill="white" transform="translate(0 0.725098)"/>
</clipPath>
</defs>
</svg>
