<svg width="166" height="168" viewBox="0 0 166 168" fill="none" xmlns="http://www.w3.org/2000/svg">
<g id="Group 277" filter="url(#filter0_bd_549_5156)">
<path id="Vector" d="M83 3.66051e-06C93.2605 -0.0031695 103.417 2.05671 112.865 6.05718C122.314 10.0577 130.861 15.917 138 23.287V3.66051e-06H149V44H105V33H132.071C121.767 21.5569 107.78 14.0836 92.5405 11.8775C77.3006 9.67136 61.7693 12.8717 48.6429 20.9229C35.5166 28.9741 25.6241 41.3678 20.683 55.9523C15.7418 70.5368 16.0639 86.3912 21.5935 100.763C27.123 115.135 37.5107 127.116 50.9533 134.628C64.3958 142.139 80.0444 144.706 95.1821 141.882C110.32 139.059 123.991 131.024 133.822 119.172C143.653 107.319 149.023 92.3988 149 77H160C160 92.2291 155.484 107.116 147.023 119.779C138.562 132.441 126.537 142.311 112.467 148.139C98.3967 153.967 82.9146 155.492 67.9781 152.52C53.0415 149.549 39.3214 142.216 28.5528 131.447C17.7842 120.679 10.4506 106.958 7.47957 92.0219C4.50851 77.0854 6.03336 61.6033 11.8613 47.5334C17.6893 33.4635 27.5585 21.4377 40.2211 12.9768C52.8837 4.51597 67.7709 3.66051e-06 83 3.66051e-06Z" fill="url(#paint0_linear_549_5156)"/>
<g id="Group 364">
<rect id="Rectangle 37" x="77.6528" y="28.875" width="10.6944" height="51.3333" fill="url(#paint1_linear_549_5156)"/>
<rect id="Rectangle 38" x="128.986" y="74.8613" width="10.6944" height="51.3333" transform="rotate(90 128.986 74.8613)" fill="url(#paint2_linear_549_5156)"/>
</g>
</g>
<defs>
<filter id="filter0_bd_549_5156" x="-18" y="-24" width="202" height="202" filterUnits="userSpaceOnUse" color-interpolation-filters="sRGB">
<feFlood flood-opacity="0" result="BackgroundImageFix"/>
<feGaussianBlur in="BackgroundImageFix" stdDeviation="12"/>
<feComposite in2="SourceAlpha" operator="in" result="effect1_backgroundBlur_549_5156"/>
<feColorMatrix in="SourceAlpha" type="matrix" values="0 0 0 0 0 0 0 0 0 0 0 0 0 0 0 0 0 0 127 0" result="hardAlpha"/>
<feOffset dy="8"/>
<feGaussianBlur stdDeviation="3"/>
<feComposite in2="hardAlpha" operator="out"/>
<feColorMatrix type="matrix" values="0 0 0 0 0 0 0 0 0 0 0 0 0 0 0 0 0 0 0.22 0"/>
<feBlend mode="normal" in2="effect1_backgroundBlur_549_5156" result="effect2_dropShadow_549_5156"/>
<feBlend mode="normal" in="SourceGraphic" in2="effect2_dropShadow_549_5156" result="shape"/>
</filter>
<linearGradient id="paint0_linear_549_5156" x1="83" y1="0" x2="83" y2="154" gradientUnits="userSpaceOnUse">
<stop stop-color="#00C2FF"/>
<stop offset="1" stop-color="#0057FF"/>
</linearGradient>
<linearGradient id="paint1_linear_549_5156" x1="83.0001" y1="28.875" x2="83.0001" y2="80.2083" gradientUnits="userSpaceOnUse">
<stop stop-color="#00C2FF"/>
<stop offset="1" stop-color="#0057FF"/>
</linearGradient>
<linearGradient id="paint2_linear_549_5156" x1="134.333" y1="74.8613" x2="134.333" y2="126.195" gradientUnits="userSpaceOnUse">
<stop stop-color="#00C2FF"/>
<stop offset="1" stop-color="#0057FF"/>
</linearGradient>
</defs>
</svg>
