<svg width="141" height="140" viewBox="0 0 141 140" fill="none" xmlns="http://www.w3.org/2000/svg">
<path id="Vector" d="M70.2969 0C56.4522 0 42.9184 4.10543 31.407 11.7971C19.8956 19.4888 10.9235 30.4213 5.62535 43.2122C0.32722 56.003 -1.05901 70.0776 1.64195 83.6563C4.34292 97.235 11.0098 109.708 20.7994 119.497C30.5891 129.287 43.0619 135.954 56.6406 138.655C70.2193 141.356 84.2939 139.97 97.0848 134.672C109.876 129.373 120.808 120.401 128.5 108.89C136.191 97.3785 140.297 83.8447 140.297 70C140.276 51.4413 132.894 33.6489 119.771 20.5259C106.648 7.40295 88.8556 0.0211736 70.2969 0ZM10.3969 71.97L17.0869 74.2L25.2969 86.515V92.93C25.2972 94.256 25.8242 95.5275 26.7619 96.465L40.2969 110V121.885C31.4864 116.786 24.1187 109.529 18.8878 100.797C13.6568 92.0641 10.7348 82.1438 10.3969 71.97ZM70.2969 130C65.9713 129.991 61.6595 129.513 57.4369 128.575L60.2969 120L69.3219 97.44C69.6226 96.6868 69.7356 95.8717 69.6511 95.0651C69.5666 94.2585 69.2872 93.4845 68.8369 92.81L61.7819 82.225C61.3252 81.5404 60.7065 80.9792 59.9808 80.591C59.2551 80.2029 58.4449 79.9999 57.6219 80H32.9719L26.7319 70.635L37.3669 60H45.2969V70H55.2969V56.33L74.6369 22.48L65.9569 17.52L61.6819 25H47.9719L42.5469 16.855C49.836 13.0085 57.8469 10.7235 66.0684 10.1459C74.2899 9.56822 82.5415 10.7106 90.2969 13.5V30C90.2969 31.3261 90.8237 32.5978 91.7614 33.5355C92.6991 34.4732 93.9708 35 95.2969 35H102.622C103.445 35.0001 104.255 34.7971 104.981 34.409C105.707 34.0208 106.325 33.4596 106.782 32.775L111.167 26.195C116.878 31.5213 121.497 37.9085 124.767 45H104.397C103.241 45.0007 102.122 45.4016 101.229 46.1344C100.335 46.8673 99.7234 47.8869 99.4969 49.02L95.8819 71.37C95.7108 72.4222 95.8805 73.5016 96.3662 74.4506C96.852 75.3995 97.6283 76.1684 98.5819 76.645L115.297 85L118.722 105.28C113.172 112.928 105.892 119.154 97.4756 123.451C89.0595 127.747 79.7463 129.991 70.2969 130Z" fill="url(#paint0_linear_549_5881)"/>
<defs>
<linearGradient id="paint0_linear_549_5881" x1="70.2969" y1="0" x2="70.2969" y2="140" gradientUnits="userSpaceOnUse">
<stop stop-color="#00C2FF"/>
<stop offset="1" stop-color="#0057FF"/>
</linearGradient>
</defs>
</svg>
