<svg width="141" height="140" viewBox="0 0 141 140" fill="none" xmlns="http://www.w3.org/2000/svg">
<path id="Subtract" fill-rule="evenodd" clip-rule="evenodd" d="M70.5 140C109.16 140 140.5 108.66 140.5 70C140.5 31.3401 109.16 0 70.5 0C31.8401 0 0.5 31.3401 0.5 70C0.5 108.66 31.8401 140 70.5 140ZM75.5071 23.0409C74.808 22.7015 74.1339 22.3119 73.4902 21.8752L70.0682 21.9091C69.7223 22.0673 69.369 22.2213 69.013 22.3766C68.4694 22.6135 67.9193 22.8533 67.379 23.1154C60.8644 26.3007 59.2374 34.4198 65.1873 39.6383C66.2553 40.504 67.2452 41.4634 68.1454 42.505C68.5555 43.1508 68.7596 43.9076 68.7303 44.6737C68.7605 45.9157 68.7459 47.1611 68.7312 48.4066C68.7101 50.2127 68.6889 52.0192 68.8042 53.8162C68.979 56.5271 67.6681 57.9639 65.4831 59.238C63.3456 60.4832 61.7481 59.5459 60.1354 58.5997C59.9575 58.4953 59.7795 58.3908 59.6005 58.2892C55.8938 56.1837 52.2186 54.0015 48.5748 51.7424C47.6749 51.1662 46.881 50.437 46.2284 49.5872C46.0335 49.3237 45.8969 49.021 45.828 48.6996C45.759 48.3783 45.7593 48.0458 45.8288 47.7246C45.8982 47.4034 46.0353 47.1009 46.2306 46.8376C46.426 46.5744 46.6751 46.3565 46.9612 46.1986C48.7105 45.137 50.4561 44.096 52.2067 43.052C53.7866 42.1098 55.3705 41.1652 56.965 40.2008C59.3853 38.7437 59.1904 36.3445 57.1735 35.1111C56.0721 34.4577 55.2056 34.9736 54.3904 35.459C54.2501 35.5425 54.1114 35.6251 53.9733 35.7007C52.4238 36.5387 50.8954 37.4232 49.3662 38.3082C47.3459 39.4774 45.3242 40.6474 43.2501 41.7121C42.2729 42.2138 40.9833 42.2073 39.792 42.2014C39.6638 42.2007 39.5367 42.2001 39.4113 42.2001C36.6414 42.2272 34.4901 43.2641 32.9976 45.67C31.6395 47.8726 31.7807 50.143 32.7757 52.3456C33.8581 54.7379 35.7069 56.1272 38.4835 55.829C38.5393 55.8361 38.5958 55.8361 38.6516 55.829C43.2364 54.6943 46.8516 56.8876 50.4764 59.0867C50.7052 59.2255 50.934 59.3643 51.1631 59.5023C51.3047 59.5879 51.4463 59.6734 51.5879 59.759C53.8802 61.1446 56.1749 62.5316 58.5113 63.8465C59.1806 64.1565 59.7459 64.656 60.1386 65.2841C60.5313 65.9122 60.7344 66.6418 60.7232 67.3842C60.7568 69.3564 60.5484 71.0574 58.5315 72.1282C56.5375 73.1793 54.571 74.2802 52.6033 75.3818C50.8027 76.3899 49.001 77.3985 47.1764 78.3701C46.4914 78.641 45.7302 78.641 45.0452 78.3701C43.7599 77.9401 42.5488 77.3113 41.4551 76.5063C40.8173 75.8745 40.4423 75.0214 40.4063 74.1208C40.338 72.338 40.3447 70.5531 40.3513 68.7672C40.3565 67.3894 40.3616 66.011 40.3324 64.6326C40.376 63.4015 40.196 62.1727 39.8012 61.0068C39.3697 60.1744 38.6308 59.5464 37.744 59.2583C37.4757 59.1732 37.1929 59.1445 36.9132 59.174C36.6334 59.2034 36.3626 59.2904 36.1175 59.4295C35.8724 59.5686 35.6582 59.7569 35.4882 59.9827C35.3181 60.2085 35.1958 60.4671 35.1288 60.7425C34.845 61.5864 34.6864 62.4679 34.6581 63.3585C34.6313 65.2383 34.6402 67.1211 34.6492 69.0029C34.6537 69.9435 34.6581 70.8838 34.6581 71.8233C34.6871 72.9819 34.4151 74.1281 33.8691 75.1481C33.3231 76.1681 32.522 77.0265 31.5454 77.6381C26.3082 81.3588 26.3082 89.8507 31.6059 93.673C33.4845 95.1049 35.7859 95.8592 38.1407 95.8146C41.1458 95.7401 45.5965 92.4192 46.578 89.3898C46.7304 88.9218 46.8511 88.4409 46.9716 87.9608C47.4095 86.216 47.8447 84.482 49.7849 83.4191C51.5961 82.4468 53.3516 81.394 55.1033 80.3434C57.0514 79.1751 58.9949 78.0095 61.0056 76.9604C62.33 76.2691 63.9099 76.5402 65.4764 77.3331C68.1118 78.6479 68.9185 80.5659 68.7841 83.4326C68.6026 87.8785 68.6765 92.3515 68.7841 96.8109C68.8604 97.7796 68.675 98.751 68.2477 99.6221C67.8204 100.493 67.1671 101.231 66.3571 101.758C65.7264 101.386 65.1021 100.989 64.476 100.591C62.9798 99.6386 61.4729 98.6798 59.8425 98.0443C59.1515 97.8249 58.4228 97.7532 57.7027 97.8337C56.9827 97.9142 56.2873 98.1452 55.6608 98.5119C52.8689 100.428 50.1984 102.52 47.527 104.612C46.5316 105.392 45.5361 106.172 44.5342 106.943L40.3324 110.155C40.3324 109.621 40.3416 109.132 40.3503 108.672C40.3662 107.831 40.3802 107.089 40.3324 106.353C40.2382 104.788 40.0567 103.229 39.8752 101.677C39.6937 100.389 38.8869 99.9216 37.6768 99.8403C36.4666 99.7589 35.3842 100.098 35.122 101.406C34.8415 102.826 34.684 104.268 34.6514 105.716C34.5842 108.312 34.5909 110.914 34.6514 113.51C34.6985 115.313 34.9271 117.088 37.112 117.651C37.1591 117.664 37.1591 117.963 37.1591 118.125H39.176C39.176 118.07 39.1669 118.005 39.1578 117.94C39.14 117.812 39.1225 117.687 39.176 117.651C39.8193 117.179 40.4698 116.717 41.1198 116.256C42.1409 115.531 43.161 114.807 44.151 114.045C45.5847 112.943 47.0073 111.827 48.4294 110.712C50.9952 108.699 53.5596 106.688 56.1852 104.761C57.0188 104.144 58.6055 103.69 59.4055 104.083L59.4339 104.097C61.6166 105.17 63.8538 106.27 64.878 108.929C66.9823 114.398 73.0196 114.452 75.8903 111.992C79.393 109.003 78.6803 104.659 75.8903 101.311C74.7598 100.127 74.1244 98.5493 74.1154 96.9057C74.1894 91.9923 74.2364 87.0788 74.1154 82.1653C74.0751 80.2677 75.097 79.2104 76.3743 78.2345C76.9189 77.772 77.5675 77.4509 78.2635 77.2993C78.3292 77.2905 78.3956 77.2814 78.4625 77.2723C79.4775 77.1341 80.6185 76.9788 81.4636 77.3603C83.7324 78.3937 85.9271 79.5849 88.032 80.9251C88.3487 81.1263 88.6681 81.3209 88.9855 81.5143C91.383 82.9753 93.6712 84.3696 93.9146 88.0683C93.9451 88.5303 93.9827 88.9269 94.0154 89.2726C94.2063 91.2897 94.233 91.572 91.7364 92.9953C90.9687 93.44 90.201 93.8825 89.4343 94.3244C86.6961 95.9027 83.9705 97.4738 81.3023 99.1151C81.0055 99.3097 80.7506 99.5626 80.5529 99.8587C80.3552 100.155 80.2187 100.488 80.1516 100.838C80.0844 101.189 80.088 101.549 80.1621 101.898C80.2362 102.247 80.3794 102.578 80.5829 102.87C81.0054 103.424 81.617 103.8 82.299 103.925C82.9809 104.05 83.6847 103.916 84.2739 103.547C85.3921 102.894 86.504 102.23 87.6158 101.565C90.1269 100.065 92.6374 98.5641 95.2189 97.1972C96.9803 96.2484 99.0645 95.2995 101.014 95.2995C101.532 95.2908 102.045 95.3199 102.558 95.3489C103.643 95.4104 104.731 95.472 105.882 95.1776C112.154 93.5646 114.433 87.8378 112.927 82.7549C111.105 76.5605 104.483 73.0771 98.0224 77.3331C96.1601 78.5869 94.271 78.4378 92.4154 77.3331C91.7088 76.912 91.0161 76.4605 90.3237 76.0093C88.9215 75.0953 87.5207 74.1822 86.0084 73.5244C83.2251 72.3383 82.7276 70.3729 82.6469 67.5943C82.5662 64.8156 84.1394 63.6771 86.116 62.5927L88.2337 61.4202C89.3251 60.806 90.4153 60.1874 91.5061 59.5684C93.9899 58.1589 96.4772 56.7474 98.9905 55.3817C101.357 54.1076 103.024 55.131 103.024 57.7402V69.4241C103.038 71.1794 104.046 72.0944 105.767 72.013C107.293 71.9453 108.389 70.6034 108.389 68.6244C108.399 67.2192 108.392 65.8131 108.384 64.4068C108.371 61.8047 108.358 59.2017 108.45 56.6016C108.575 55.3141 108.967 54.0674 109.599 52.9419L109.607 52.927C110.76 50.6691 111.829 48.5783 110.541 45.8869C109.25 43.1895 106.816 41.1157 103.071 41.5359C101.739 41.7685 100.505 42.3963 99.5277 43.3391C98.5505 44.2819 97.8743 45.4969 97.5854 46.8289C97.2224 48.7469 96.429 50.5564 94.6811 51.573C91.705 53.298 88.7033 54.9744 85.7003 56.6514C84.3615 57.3991 83.0226 58.1468 81.6855 58.8991C81.1443 59.267 80.5169 59.4857 79.8658 59.5332C79.2147 59.5808 78.5626 59.4556 77.9744 59.1702C74.976 57.7809 74.1289 56.6626 74.1289 53.274C74.1289 52.3317 74.1236 51.3902 74.1184 50.4489C74.1079 48.5671 74.0975 46.6863 74.1289 44.8025C74.0777 44.1509 74.2356 43.4999 74.5793 42.9456C75.837 41.5964 77.1721 40.3252 78.509 39.0523C78.8443 38.7331 79.1797 38.4138 79.514 38.0931C80.3073 37.334 81.0737 37.3679 82.0553 37.9643C85.4235 39.9975 88.8119 42.0103 92.3011 43.813C93.1684 44.2603 94.7819 44.2942 95.4475 43.7792C96.1131 43.2641 96.2946 41.7663 96.2273 40.7362C96.187 40.1127 95.387 39.374 94.7147 38.9877C92.9271 37.9157 91.1056 36.8937 89.2826 35.8709C88.1781 35.2512 87.0731 34.6312 85.9748 33.9996C83.6083 32.6374 81.5914 31.0719 80.5964 28.2051C80.1771 27.0199 79.5037 25.9426 78.6239 25.0499C77.7442 24.1573 76.68 23.4713 75.5071 23.0409Z" fill="url(#paint0_linear_1029_9238)"/>
<defs>
<linearGradient id="paint0_linear_1029_9238" x1="69.2553" y1="-30.0151" x2="69.2553" y2="179.88" gradientUnits="userSpaceOnUse">
<stop stop-color="#00C2FF"/>
<stop offset="1" stop-color="#0057FF"/>
</linearGradient>
</defs>
</svg>
