<svg width="16" height="16" viewBox="0 0 16 16" fill="none" xmlns="http://www.w3.org/2000/svg">
<g id="Flag : U">
<path id="Vector" d="M14.2222 2.22217H1.77778C1.30628 2.22217 0.854097 2.40947 0.520699 2.74287C0.187301 3.07626 0 3.52845 0 3.99995L0 7.99995H16V3.99995C16 3.52845 15.8127 3.07626 15.4793 2.74287C15.1459 2.40947 14.6937 2.22217 14.2222 2.22217Z" fill="#005BBB"/>
<path id="Vector_2" d="M16 12C16 12.4715 15.8127 12.9237 15.4793 13.2571C15.1459 13.5905 14.6937 13.7778 14.2222 13.7778H1.77778C1.30628 13.7778 0.854097 13.5905 0.520699 13.2571C0.187301 12.9237 0 12.4715 0 12V8H16V12Z" fill="#FFD500"/>
</g>
</svg>
