<svg width="40" height="40" viewBox="0 0 40 40" fill="none" xmlns="http://www.w3.org/2000/svg">
<g id="Content">
<path id="Vector" d="M32.7708 13.8866C32.619 13.3497 32.3219 12.8601 31.9091 12.4669C31.4962 12.0738 30.9822 11.7908 30.4185 11.6462C28.3424 11.1111 20 11.1111 20 11.1111C20 11.1111 11.6576 11.1111 9.58153 11.6462C9.01779 11.7908 8.50379 12.0738 8.09098 12.4669C7.67817 12.8601 7.38102 13.3497 7.22928 13.8866C6.84163 15.9032 6.65351 17.9499 6.6674 20C6.65351 22.05 6.84163 24.0968 7.22928 26.1134C7.38102 26.6503 7.67817 27.1398 8.09098 27.533C8.50379 27.9262 9.01779 28.2092 9.58153 28.3537C11.6576 28.8889 20 28.8889 20 28.8889C20 28.8889 28.3424 28.8889 30.4185 28.3537C30.9822 28.2092 31.4962 27.9262 31.9091 27.533C32.3219 27.1398 32.619 26.6503 32.7708 26.1134C33.1584 24.0968 33.3465 22.05 33.3326 20C33.3465 17.9499 33.1584 15.9032 32.7708 13.8866ZM17.3335 23.8095V16.1904L24.2569 20L17.3335 23.8095Z" fill="white"/>
</g>
</svg>
